# xmcd
#
# Track frame offsets: 
#        150
#        10782
#        22545
#        35770
#        48915
#        60830
#        73010
#        82927
#        93047
#        104910
#        116267
#        131002
#        144822
#        157327
#        167475
#        178732
#        191612
#        205060
#        217850
#        229997
#        241010
#        252315
#        265215
#        276230
#
# Disc length: 3839 seconds
#
# Revision: 7
# Processed by: cddbd v1.5.2PL0 Copyright (c) Steve Scherf et al.
# Submitted via: ExactAudioCopy v1.0b1
#
DISCID=3e0efd18
DTITLE=Various Artist - Country U.S.A. Vol. 6 1968
DYEAR=1989
DGENRE=Country
TTITLE0=Waylon Jennings - Only Daddy That'll Walk The Line
TTITLE1=Jerry Lee Lewis - What's Made Milwaukee Famous (Has Made A Los
TTITLE1=er Out Of Me)
TTITLE2=Conway Twitty - The Image Of Me
TTITLE3=George Jones - When The Grass Grows Over Me
TTITLE4=Osborne Brothers - Rocky Top
TTITLE5=Tammy Wynette - Stand By Your Man
TTITLE6=Merle Haggard - Mama Tried
TTITLE7=Buck Owens And The Buckaroos - How Long Will My Baby Be Gone
TTITLE8=Porter Wagoner And Dolly Parton - The Last Thing On My Mind
TTITLE9=Charley Pride - The Day The World Stood Still
TTITLE10=Jeannie C. Riley - Harper Valley P.T.A.
TTITLE11=Glen Campbell - Wichita Lineman
TTITLE12=Johnny Cash - Folsom Prison Blues
TTITLE13=Loretta Lynn - Fist City
TTITLE14=Jerry Lee Lewis - She Still Comes Around (To Love What's Left
TTITLE14=Of Me)
TTITLE15=Porter Wagoner - The Carroll County Accident
TTITLE16=Tammy Wynette - D-I-V-O-R-C-E
TTITLE17=Merle Haggard - I Take A Lot Of Pride In What I Am
TTITLE18=Flatt And Scruggs - Foggy Mountain Breakdown
TTITLE19=Del Reeves - Looking At The World Through A Windshield
TTITLE20=Porter Wagoner And Dolly Parton - Holding On To Nothin'
TTITLE21=Conway Twitty - Next In Line
TTITLE22=Jerry Lee Lewis - Another Place Another Time
TTITLE23=Henson Cargill - Skip A Rope
EXTD=YEAR: 1968
EXTT0=
EXTT1=
EXTT2=
EXTT3=
EXTT4=
EXTT5=
EXTT6=
EXTT7=
EXTT8=
EXTT9=
EXTT10=
EXTT11=
EXTT12=
EXTT13=
EXTT14=
EXTT15=
EXTT16=
EXTT17=
EXTT18=
EXTT19=
EXTT20=
EXTT21=
EXTT22=
EXTT23=
PLAYORDER=
